<svg class="railroad-diagram" height="80" viewBox="0 0 689.0 80" width="689.0" xmlns="http://www.w3.org/2000/svg" xmlns:xlink="http://www.w3.org/1999/xlink">
<g transform="translate(.5 .5)">
<style>/* <![CDATA[ */
	svg.railroad-diagram {
		background-color:hsl(30,20%,95%);
	}
	svg.railroad-diagram path {
		stroke-width:3;
		stroke:black;
		fill:rgba(0,0,0,0);
	}
	svg.railroad-diagram text {
		font:bold 14px monospace;
		text-anchor:middle;
	}
	svg.railroad-diagram text.label{
		text-anchor:start;
	}
	svg.railroad-diagram text.comment{
		font:italic 12px monospace;
	}
	svg.railroad-diagram rect{
		stroke-width:3;
		stroke:black;
		fill:hsl(120,100%,90%);
	}
	svg.railroad-diagram rect.group-box {
		stroke: gray;
		stroke-dasharray: 10 5;
		fill: none;
	}

/* ]]> */
</style><g>
<path d="M20 30v20m0 -10h120.5"></path><text style="text-anchor:start" x="20" y="25">andExpression</text></g><path d="M140.5 40h10"></path><g class="non-terminal ">
<path d="M150.5 40h0.0"></path><path d="M298.0 40h0.0"></path><rect height="22" width="147.5" x="150.5" y="29"></rect><text x="224.25" y="44">equalExpression</text></g><path d="M298.0 40h10"></path><g>
<path d="M308.0 40h0.0"></path><path d="M649.0 40h0.0"></path><path d="M308.0 40a10 10 0 0 0 10 -10v0a10 10 0 0 1 10 -10"></path><g>
<path d="M328.0 20h301.0"></path></g><path d="M629.0 20a10 10 0 0 1 10 10v0a10 10 0 0 0 10 10"></path><path d="M308.0 40h20"></path><g>
<path d="M328.0 40h0.0"></path><path d="M629.0 40h0.0"></path><path d="M328.0 40h10"></path><g>
<path d="M338.0 40h0.0"></path><path d="M619.0 40h0.0"></path><g class="non-terminal ">
<path d="M338.0 40h0.0"></path><path d="M451.5 40h0.0"></path><rect height="22" width="113.5" x="338.0" y="29"></rect><text x="394.75" y="44">andOperator</text></g><path d="M451.5 40h10"></path><path d="M461.5 40h10"></path><g class="non-terminal ">
<path d="M471.5 40h0.0"></path><path d="M619.0 40h0.0"></path><rect height="22" width="147.5" x="471.5" y="29"></rect><text x="545.25" y="44">equalExpression</text></g></g><path d="M619.0 40h10"></path><path d="M338.0 40a10 10 0 0 0 -10 10v0a10 10 0 0 0 10 10"></path><g>
<path d="M338.0 60h281.0"></path></g><path d="M619.0 60a10 10 0 0 0 10 -10v0a10 10 0 0 0 -10 -10"></path></g><path d="M629.0 40h20"></path></g><path d="M 649.0 40 h 20 m -10 -10 v 20 m 10 -20 v 20"></path></g></svg>