<svg class="railroad-diagram" height="80" viewBox="0 0 774.0 80" width="774.0" xmlns="http://www.w3.org/2000/svg" xmlns:xlink="http://www.w3.org/1999/xlink">
<g transform="translate(.5 .5)">
<style>/* <![CDATA[ */
	svg.railroad-diagram {
		background-color:hsl(30,20%,95%);
	}
	svg.railroad-diagram path {
		stroke-width:3;
		stroke:black;
		fill:rgba(0,0,0,0);
	}
	svg.railroad-diagram text {
		font:bold 14px monospace;
		text-anchor:middle;
	}
	svg.railroad-diagram text.label{
		text-anchor:start;
	}
	svg.railroad-diagram text.comment{
		font:italic 12px monospace;
	}
	svg.railroad-diagram rect{
		stroke-width:3;
		stroke:black;
		fill:hsl(120,100%,90%);
	}
	svg.railroad-diagram rect.group-box {
		stroke: gray;
		stroke-dasharray: 10 5;
		fill: none;
	}

/* ]]> */
</style><g>
<path d="M20 30v20m0 -10h137.5"></path><text style="text-anchor:start" x="20" y="25">equalExpression</text></g><path d="M157.5 40h10"></path><g class="non-terminal ">
<path d="M167.5 40h0.0"></path><path d="M340.5 40h0.0"></path><rect height="22" width="173.0" x="167.5" y="29"></rect><text x="254.0" y="44">relationExpression</text></g><path d="M340.5 40h10"></path><g>
<path d="M350.5 40h0.0"></path><path d="M734.0 40h0.0"></path><path d="M350.5 40a10 10 0 0 0 10 -10v0a10 10 0 0 1 10 -10"></path><g>
<path d="M370.5 20h343.5"></path></g><path d="M714.0 20a10 10 0 0 1 10 10v0a10 10 0 0 0 10 10"></path><path d="M350.5 40h20"></path><g>
<path d="M370.5 40h0.0"></path><path d="M714.0 40h0.0"></path><path d="M370.5 40h10"></path><g>
<path d="M380.5 40h0.0"></path><path d="M704.0 40h0.0"></path><g class="non-terminal ">
<path d="M380.5 40h0.0"></path><path d="M511.0 40h0.0"></path><rect height="22" width="130.5" x="380.5" y="29"></rect><text x="445.75" y="44">equalOperator</text></g><path d="M511.0 40h10"></path><path d="M521.0 40h10"></path><g class="non-terminal ">
<path d="M531.0 40h0.0"></path><path d="M704.0 40h0.0"></path><rect height="22" width="173.0" x="531.0" y="29"></rect><text x="617.5" y="44">relationExpression</text></g></g><path d="M704.0 40h10"></path><path d="M380.5 40a10 10 0 0 0 -10 10v0a10 10 0 0 0 10 10"></path><g>
<path d="M380.5 60h323.5"></path></g><path d="M704.0 60a10 10 0 0 0 10 -10v0a10 10 0 0 0 -10 -10"></path></g><path d="M714.0 40h20"></path></g><path d="M 734.0 40 h 20 m -10 -10 v 20 m 10 -20 v 20"></path></g></svg>