<svg class="railroad-diagram" height="92" viewBox="0 0 274.5 92" width="274.5" xmlns="http://www.w3.org/2000/svg" xmlns:xlink="http://www.w3.org/1999/xlink">
<g transform="translate(.5 .5)">
<style>/* <![CDATA[ */
	svg.railroad-diagram {
		background-color:hsl(30,20%,95%);
	}
	svg.railroad-diagram path {
		stroke-width:3;
		stroke:black;
		fill:rgba(0,0,0,0);
	}
	svg.railroad-diagram text {
		font:bold 14px monospace;
		text-anchor:middle;
	}
	svg.railroad-diagram text.label{
		text-anchor:start;
	}
	svg.railroad-diagram text.comment{
		font:italic 12px monospace;
	}
	svg.railroad-diagram rect{
		stroke-width:3;
		stroke:black;
		fill:hsl(120,100%,90%);
	}
	svg.railroad-diagram rect.group-box {
		stroke: gray;
		stroke-dasharray: 10 5;
		fill: none;
	}

/* ]]> */
</style><g>
<path d="M20 21v20m0 -10h120.5"></path><text style="text-anchor:start" x="20" y="16">equalOperator</text></g><g>
<path d="M140.5 31h0.0"></path><path d="M234.5 31h0.0"></path><path d="M140.5 31h20"></path><g class="terminal ">
<path d="M160.5 31h0.0"></path><path d="M214.5 31h0.0"></path><rect height="22" rx="10" ry="10" width="54.0" x="160.5" y="20"></rect><text x="187.5" y="35">"=="</text></g><path d="M214.5 31h20"></path><path d="M140.5 31a10 10 0 0 1 10 10v10a10 10 0 0 0 10 10"></path><g class="terminal ">
<path d="M160.5 61h0.0"></path><path d="M214.5 61h0.0"></path><rect height="22" rx="10" ry="10" width="54.0" x="160.5" y="50"></rect><text x="187.5" y="65">"!="</text></g><path d="M214.5 61a10 10 0 0 0 10 -10v-10a10 10 0 0 1 10 -10"></path></g><path d="M 234.5 31 h 20 m -10 -10 v 20 m 10 -20 v 20"></path></g></svg>