<svg class="railroad-diagram" height="62" viewBox="0 0 521.5 62" width="521.5" xmlns="http://www.w3.org/2000/svg" xmlns:xlink="http://www.w3.org/1999/xlink">
<g transform="translate(.5 .5)">
<style>/* <![CDATA[ */
	svg.railroad-diagram {
		background-color:hsl(30,20%,95%);
	}
	svg.railroad-diagram path {
		stroke-width:3;
		stroke:black;
		fill:rgba(0,0,0,0);
	}
	svg.railroad-diagram text {
		font:bold 14px monospace;
		text-anchor:middle;
	}
	svg.railroad-diagram text.label{
		text-anchor:start;
	}
	svg.railroad-diagram text.comment{
		font:italic 12px monospace;
	}
	svg.railroad-diagram rect{
		stroke-width:3;
		stroke:black;
		fill:hsl(120,100%,90%);
	}
	svg.railroad-diagram rect.group-box {
		stroke: gray;
		stroke-dasharray: 10 5;
		fill: none;
	}

/* ]]> */
</style><g>
<path d="M20 21v20m0 -10h146.0"></path><text style="text-anchor:start" x="20" y="16">lambdaDefinition</text></g><path d="M166.0 31h10"></path><g class="non-terminal ">
<path d="M176.0 31h0.0"></path><path d="M281.0 31h0.0"></path><rect height="22" width="105.0" x="176.0" y="20"></rect><text x="228.5" y="35">identifier</text></g><path d="M281.0 31h10"></path><path d="M291.0 31h10"></path><g>
<path d="M301.0 31h0.0"></path><path d="M471.5 31h0.0"></path><g class="terminal ">
<path d="M301.0 31h0.0"></path><path d="M346.5 31h0.0"></path><rect height="22" rx="10" ry="10" width="45.5" x="301.0" y="20"></rect><text x="323.75" y="35">"="</text></g><path d="M346.5 31h10"></path><path d="M356.5 31h10"></path><g class="non-terminal ">
<path d="M366.5 31h0.0"></path><path d="M471.5 31h0.0"></path><rect height="22" width="105.0" x="366.5" y="20"></rect><text x="419.0" y="35">expression</text></g></g><path d="M471.5 31h10"></path><path d="M 481.5 31 h 20 m -10 -10 v 20 m 10 -20 v 20"></path></g></svg>