<svg class="railroad-diagram" height="62" viewBox="0 0 672.0 62" width="672.0" xmlns="http://www.w3.org/2000/svg" xmlns:xlink="http://www.w3.org/1999/xlink">
<g transform="translate(.5 .5)">
<style>/* <![CDATA[ */
	svg.railroad-diagram {
		background-color:hsl(30,20%,95%);
	}
	svg.railroad-diagram path {
		stroke-width:3;
		stroke:black;
		fill:rgba(0,0,0,0);
	}
	svg.railroad-diagram text {
		font:bold 14px monospace;
		text-anchor:middle;
	}
	svg.railroad-diagram text.label{
		text-anchor:start;
	}
	svg.railroad-diagram text.comment{
		font:italic 12px monospace;
	}
	svg.railroad-diagram rect{
		stroke-width:3;
		stroke:black;
		fill:hsl(120,100%,90%);
	}
	svg.railroad-diagram rect.group-box {
		stroke: gray;
		stroke-dasharray: 10 5;
		fill: none;
	}

/* ]]> */
</style><g>
<path d="M20 21v20m0 -10h146.0"></path><text style="text-anchor:start" x="20" y="16">lambdaAssignment</text></g><path d="M166.0 31h10"></path><g class="non-terminal ">
<path d="M176.0 31h0.0"></path><path d="M306.5 31h0.0"></path><rect height="22" width="130.5" x="176.0" y="20"></rect><text x="241.25" y="35">TypeSpecifier</text></g><path d="M306.5 31h10"></path><path d="M316.5 31h10"></path><g class="non-terminal ">
<path d="M326.5 31h0.0"></path><path d="M431.5 31h0.0"></path><rect height="22" width="105.0" x="326.5" y="20"></rect><text x="379.0" y="35">identifier</text></g><path d="M431.5 31h10"></path><path d="M441.5 31h10"></path><g>
<path d="M451.5 31h0.0"></path><path d="M622.0 31h0.0"></path><g class="terminal ">
<path d="M451.5 31h0.0"></path><path d="M497.0 31h0.0"></path><rect height="22" rx="10" ry="10" width="45.5" x="451.5" y="20"></rect><text x="474.25" y="35">"="</text></g><path d="M497.0 31h10"></path><path d="M507.0 31h10"></path><g class="non-terminal ">
<path d="M517.0 31h0.0"></path><path d="M622.0 31h0.0"></path><rect height="22" width="105.0" x="517.0" y="20"></rect><text x="569.5" y="35">expression</text></g></g><path d="M622.0 31h10"></path><path d="M 632.0 31 h 20 m -10 -10 v 20 m 10 -20 v 20"></path></g></svg>