<svg class="railroad-diagram" height="80" viewBox="0 0 859.0 80" width="859.0" xmlns="http://www.w3.org/2000/svg" xmlns:xlink="http://www.w3.org/1999/xlink">
<g transform="translate(.5 .5)">
<style>/* <![CDATA[ */
	svg.railroad-diagram {
		background-color:hsl(30,20%,95%);
	}
	svg.railroad-diagram path {
		stroke-width:3;
		stroke:black;
		fill:rgba(0,0,0,0);
	}
	svg.railroad-diagram text {
		font:bold 14px monospace;
		text-anchor:middle;
	}
	svg.railroad-diagram text.label{
		text-anchor:start;
	}
	svg.railroad-diagram text.comment{
		font:italic 12px monospace;
	}
	svg.railroad-diagram rect{
		stroke-width:3;
		stroke:black;
		fill:hsl(120,100%,90%);
	}
	svg.railroad-diagram rect.group-box {
		stroke: gray;
		stroke-dasharray: 10 5;
		fill: none;
	}

/* ]]> */
</style><g>
<path d="M20 30v20m0 -10h214.0"></path><text style="text-anchor:start" x="20" y="25">multiplicativeExpression</text></g><path d="M234.0 40h10"></path><g class="non-terminal ">
<path d="M244.0 40h0.0"></path><path d="M383.0 40h0.0"></path><rect height="22" width="139.0" x="244.0" y="29"></rect><text x="313.5" y="44">baseExpression</text></g><path d="M383.0 40h10"></path><g>
<path d="M393.0 40h0.0"></path><path d="M819.0 40h0.0"></path><path d="M393.0 40a10 10 0 0 0 10 -10v0a10 10 0 0 1 10 -10"></path><g>
<path d="M413.0 20h386.0"></path></g><path d="M799.0 20a10 10 0 0 1 10 10v0a10 10 0 0 0 10 10"></path><path d="M393.0 40h20"></path><g>
<path d="M413.0 40h0.0"></path><path d="M799.0 40h0.0"></path><path d="M413.0 40h10"></path><g>
<path d="M423.0 40h0.0"></path><path d="M789.0 40h0.0"></path><g class="non-terminal ">
<path d="M423.0 40h0.0"></path><path d="M630.0 40h0.0"></path><rect height="22" width="207.0" x="423.0" y="29"></rect><text x="526.5" y="44">multiplicativeOperator</text></g><path d="M630.0 40h10"></path><path d="M640.0 40h10"></path><g class="non-terminal ">
<path d="M650.0 40h0.0"></path><path d="M789.0 40h0.0"></path><rect height="22" width="139.0" x="650.0" y="29"></rect><text x="719.5" y="44">baseExpression</text></g></g><path d="M789.0 40h10"></path><path d="M423.0 40a10 10 0 0 0 -10 10v0a10 10 0 0 0 10 10"></path><g>
<path d="M423.0 60h366.0"></path></g><path d="M789.0 60a10 10 0 0 0 10 -10v0a10 10 0 0 0 -10 -10"></path></g><path d="M799.0 40h20"></path></g><path d="M 819.0 40 h 20 m -10 -10 v 20 m 10 -20 v 20"></path></g></svg>