<svg class="railroad-diagram" height="80" viewBox="0 0 638.0 80" width="638.0" xmlns="http://www.w3.org/2000/svg" xmlns:xlink="http://www.w3.org/1999/xlink">
<g transform="translate(.5 .5)">
<style>/* <![CDATA[ */
	svg.railroad-diagram {
		background-color:hsl(30,20%,95%);
	}
	svg.railroad-diagram path {
		stroke-width:3;
		stroke:black;
		fill:rgba(0,0,0,0);
	}
	svg.railroad-diagram text {
		font:bold 14px monospace;
		text-anchor:middle;
	}
	svg.railroad-diagram text.label{
		text-anchor:start;
	}
	svg.railroad-diagram text.comment{
		font:italic 12px monospace;
	}
	svg.railroad-diagram rect{
		stroke-width:3;
		stroke:black;
		fill:hsl(120,100%,90%);
	}
	svg.railroad-diagram rect.group-box {
		stroke: gray;
		stroke-dasharray: 10 5;
		fill: none;
	}

/* ]]> */
</style><g>
<path d="M20 30v20m0 -10h112.0"></path><text style="text-anchor:start" x="20" y="25">orExpression</text></g><path d="M132.0 40h10"></path><g class="non-terminal ">
<path d="M142.0 40h0.0"></path><path d="M272.5 40h0.0"></path><rect height="22" width="130.5" x="142.0" y="29"></rect><text x="207.25" y="44">andExpression</text></g><path d="M272.5 40h10"></path><g>
<path d="M282.5 40h0.0"></path><path d="M598.0 40h0.0"></path><path d="M282.5 40a10 10 0 0 0 10 -10v0a10 10 0 0 1 10 -10"></path><g>
<path d="M302.5 20h275.5"></path></g><path d="M578.0 20a10 10 0 0 1 10 10v0a10 10 0 0 0 10 10"></path><path d="M282.5 40h20"></path><g>
<path d="M302.5 40h0.0"></path><path d="M578.0 40h0.0"></path><path d="M302.5 40h10"></path><g>
<path d="M312.5 40h0.0"></path><path d="M568.0 40h0.0"></path><g class="non-terminal ">
<path d="M312.5 40h0.0"></path><path d="M417.5 40h0.0"></path><rect height="22" width="105.0" x="312.5" y="29"></rect><text x="365.0" y="44">orOperator</text></g><path d="M417.5 40h10"></path><path d="M427.5 40h10"></path><g class="non-terminal ">
<path d="M437.5 40h0.0"></path><path d="M568.0 40h0.0"></path><rect height="22" width="130.5" x="437.5" y="29"></rect><text x="502.75" y="44">andExpression</text></g></g><path d="M568.0 40h10"></path><path d="M312.5 40a10 10 0 0 0 -10 10v0a10 10 0 0 0 10 10"></path><g>
<path d="M312.5 60h255.5"></path></g><path d="M568.0 60a10 10 0 0 0 10 -10v0a10 10 0 0 0 -10 -10"></path></g><path d="M578.0 40h20"></path></g><path d="M 598.0 40 h 20 m -10 -10 v 20 m 10 -20 v 20"></path></g></svg>