<svg class="railroad-diagram" height="152" viewBox="0 0 300.0 152" width="300.0" xmlns="http://www.w3.org/2000/svg" xmlns:xlink="http://www.w3.org/1999/xlink">
<g transform="translate(.5 .5)">
<style>/* <![CDATA[ */
	svg.railroad-diagram {
		background-color:hsl(30,20%,95%);
	}
	svg.railroad-diagram path {
		stroke-width:3;
		stroke:black;
		fill:rgba(0,0,0,0);
	}
	svg.railroad-diagram text {
		font:bold 14px monospace;
		text-anchor:middle;
	}
	svg.railroad-diagram text.label{
		text-anchor:start;
	}
	svg.railroad-diagram text.comment{
		font:italic 12px monospace;
	}
	svg.railroad-diagram rect{
		stroke-width:3;
		stroke:black;
		fill:hsl(120,100%,90%);
	}
	svg.railroad-diagram rect.group-box {
		stroke: gray;
		stroke-dasharray: 10 5;
		fill: none;
	}

/* ]]> */
</style><g>
<path d="M20 81v20m0 -10h146.0"></path><text style="text-anchor:start" x="20" y="76">relationOperator</text></g><g>
<path d="M166.0 91h0.0"></path><path d="M260.0 91h0.0"></path><path d="M166.0 91a10 10 0 0 0 10 -10v-10a10 10 0 0 1 10 -10"></path><g class="terminal ">
<path d="M186.0 61h4.25"></path><path d="M235.75 61h4.25"></path><rect height="22" rx="10" ry="10" width="45.5" x="190.25" y="50"></rect><text x="213.0" y="65">"&#60;"</text></g><path d="M240.0 61a10 10 0 0 1 10 10v10a10 10 0 0 0 10 10"></path><path d="M166.0 91a10 10 0 0 0 10 -10v-40a10 10 0 0 1 10 -10"></path><g class="terminal ">
<path d="M186.0 31h4.25"></path><path d="M235.75 31h4.25"></path><rect height="22" rx="10" ry="10" width="45.5" x="190.25" y="20"></rect><text x="213.0" y="35">">"</text></g><path d="M240.0 31a10 10 0 0 1 10 10v40a10 10 0 0 0 10 10"></path><path d="M166.0 91h20"></path><g class="terminal ">
<path d="M186.0 91h0.0"></path><path d="M240.0 91h0.0"></path><rect height="22" rx="10" ry="10" width="54.0" x="186.0" y="80"></rect><text x="213.0" y="95">">="</text></g><path d="M240.0 91h20"></path><path d="M166.0 91a10 10 0 0 1 10 10v10a10 10 0 0 0 10 10"></path><g class="terminal ">
<path d="M186.0 121h0.0"></path><path d="M240.0 121h0.0"></path><rect height="22" rx="10" ry="10" width="54.0" x="186.0" y="110"></rect><text x="213.0" y="125">"&#60;="</text></g><path d="M240.0 121a10 10 0 0 0 10 -10v-10a10 10 0 0 1 10 -10"></path></g><path d="M 260.0 91 h 20 m -10 -10 v 20 m 10 -20 v 20"></path></g></svg>