<svg class="railroad-diagram" height="80" viewBox="0 0 825.0 80" width="825.0" xmlns="http://www.w3.org/2000/svg" xmlns:xlink="http://www.w3.org/1999/xlink">
<g transform="translate(.5 .5)">
<style>/* <![CDATA[ */
	svg.railroad-diagram {
		background-color:hsl(30,20%,95%);
	}
	svg.railroad-diagram path {
		stroke-width:3;
		stroke:black;
		fill:rgba(0,0,0,0);
	}
	svg.railroad-diagram text {
		font:bold 14px monospace;
		text-anchor:middle;
	}
	svg.railroad-diagram text.label{
		text-anchor:start;
	}
	svg.railroad-diagram text.comment{
		font:italic 12px monospace;
	}
	svg.railroad-diagram rect{
		stroke-width:3;
		stroke:black;
		fill:hsl(120,100%,90%);
	}
	svg.railroad-diagram rect.group-box {
		stroke: gray;
		stroke-dasharray: 10 5;
		fill: none;
	}

/* ]]> */
</style><g>
<path d="M20 30v20m0 -10h163.0"></path><text style="text-anchor:start" x="20" y="25">relationExpression</text></g><path d="M183.0 40h10"></path><g class="non-terminal ">
<path d="M193.0 40h0.0"></path><path d="M366.0 40h0.0"></path><rect height="22" width="173.0" x="193.0" y="29"></rect><text x="279.5" y="44">additiveExpression</text></g><path d="M366.0 40h10"></path><g>
<path d="M376.0 40h0.0"></path><path d="M785.0 40h0.0"></path><path d="M376.0 40a10 10 0 0 0 10 -10v0a10 10 0 0 1 10 -10"></path><g>
<path d="M396.0 20h369.0"></path></g><path d="M765.0 20a10 10 0 0 1 10 10v0a10 10 0 0 0 10 10"></path><path d="M376.0 40h20"></path><g>
<path d="M396.0 40h0.0"></path><path d="M765.0 40h0.0"></path><path d="M396.0 40h10"></path><g>
<path d="M406.0 40h0.0"></path><path d="M755.0 40h0.0"></path><g class="non-terminal ">
<path d="M406.0 40h0.0"></path><path d="M562.0 40h0.0"></path><rect height="22" width="156.0" x="406.0" y="29"></rect><text x="484.0" y="44">relationOperator</text></g><path d="M562.0 40h10"></path><path d="M572.0 40h10"></path><g class="non-terminal ">
<path d="M582.0 40h0.0"></path><path d="M755.0 40h0.0"></path><rect height="22" width="173.0" x="582.0" y="29"></rect><text x="668.5" y="44">additiveExpression</text></g></g><path d="M755.0 40h10"></path><path d="M406.0 40a10 10 0 0 0 -10 10v0a10 10 0 0 0 10 10"></path><g>
<path d="M406.0 60h349.0"></path></g><path d="M755.0 60a10 10 0 0 0 10 -10v0a10 10 0 0 0 -10 -10"></path></g><path d="M765.0 40h20"></path></g><path d="M 785.0 40 h 20 m -10 -10 v 20 m 10 -20 v 20"></path></g></svg>