<svg class="railroad-diagram" height="139" viewBox="0 0 627.0 139" width="627.0" xmlns="http://www.w3.org/2000/svg" xmlns:xlink="http://www.w3.org/1999/xlink">
<g transform="translate(.5 .5)">
<style>/* <![CDATA[ */
	svg.railroad-diagram {
		background-color:hsl(30,20%,95%);
	}
	svg.railroad-diagram path {
		stroke-width:3;
		stroke:black;
		fill:rgba(0,0,0,0);
	}
	svg.railroad-diagram text {
		font:bold 14px monospace;
		text-anchor:middle;
	}
	svg.railroad-diagram text.label{
		text-anchor:start;
	}
	svg.railroad-diagram text.comment{
		font:italic 12px monospace;
	}
	svg.railroad-diagram rect{
		stroke-width:3;
		stroke:black;
		fill:hsl(120,100%,90%);
	}
	svg.railroad-diagram rect.group-box {
		stroke: gray;
		stroke-dasharray: 10 5;
		fill: none;
	}

/* ]]> */
</style><g>
<path d="M20 30v20m0 -10h120.5"></path><text style="text-anchor:start" x="20" y="25">stringLiteral</text></g><path d="M140.5 40h10"></path><g class="terminal ">
<path d="M150.5 40h0.0"></path><path d="M196.0 40h0.0"></path><rect height="22" rx="10" ry="10" width="45.5" x="150.5" y="29"></rect><text x="173.25" y="44">'"'</text></g><path d="M196.0 40h10"></path><g>
<path d="M206.0 40h0.0"></path><path d="M521.5 40h0.0"></path><path d="M206.0 40a10 10 0 0 0 10 -10v0a10 10 0 0 1 10 -10"></path><g>
<path d="M226.0 20h275.5"></path></g><path d="M501.5 20a10 10 0 0 1 10 10v0a10 10 0 0 0 10 10"></path><path d="M206.0 40h20"></path><g>
<path d="M226.0 40h0.0"></path><path d="M501.5 40h0.0"></path><path d="M226.0 40h10"></path><g>
<path d="M236.0 40h0.0"></path><path d="M491.5 40h0.0"></path><path d="M236.0 40h20"></path><g class="terminal ">
<path d="M256.0 40h0.0"></path><path d="M471.5 40h0.0"></path><rect height="22" rx="10" ry="10" width="215.5" x="256.0" y="29"></rect><text x="363.75" y="44">&#60;not " ASCII character></text></g><path d="M471.5 40h20"></path><path d="M236.0 40a10 10 0 0 1 10 10v10a10 10 0 0 0 10 10"></path><g>
<path d="M256.0 70h37.25"></path><path d="M434.25 70h37.25"></path><g class="terminal ">
<path d="M293.25 70h0.0"></path><path d="M338.75 70h0.0"></path><rect height="22" rx="10" ry="10" width="45.5" x="293.25" y="59"></rect><text x="316.0" y="74">"\"</text></g><path d="M338.75 70h10"></path><g>
<path d="M348.75 70h0.0"></path><path d="M434.25 70h0.0"></path><path d="M348.75 70h20"></path><g class="terminal ">
<path d="M368.75 70h0.0"></path><path d="M414.25 70h0.0"></path><rect height="22" rx="10" ry="10" width="45.5" x="368.75" y="59"></rect><text x="391.5" y="74">'"'</text></g><path d="M414.25 70h20"></path><path d="M348.75 70a10 10 0 0 1 10 10v10a10 10 0 0 0 10 10"></path><g class="terminal ">
<path d="M368.75 100h0.0"></path><path d="M414.25 100h0.0"></path><rect height="22" rx="10" ry="10" width="45.5" x="368.75" y="89"></rect><text x="391.5" y="104">"n"</text></g><path d="M414.25 100a10 10 0 0 0 10 -10v-10a10 10 0 0 1 10 -10"></path></g></g><path d="M471.5 70a10 10 0 0 0 10 -10v-10a10 10 0 0 1 10 -10"></path></g><path d="M491.5 40h10"></path><path d="M236.0 40a10 10 0 0 0 -10 10v59a10 10 0 0 0 10 10"></path><g>
<path d="M236.0 119h255.5"></path></g><path d="M491.5 119a10 10 0 0 0 10 -10v-59a10 10 0 0 0 -10 -10"></path></g><path d="M501.5 40h20"></path></g><path d="M521.5 40h10"></path><g class="terminal ">
<path d="M531.5 40h0.0"></path><path d="M577.0 40h0.0"></path><rect height="22" rx="10" ry="10" width="45.5" x="531.5" y="29"></rect><text x="554.25" y="44">'"'</text></g><path d="M577.0 40h10"></path><path d="M 587.0 40 h 20 m -10 -10 v 20 m 10 -20 v 20"></path></g></svg>