<svg class="railroad-diagram" height="122" viewBox="0 0 317.0 122" width="317.0" xmlns="http://www.w3.org/2000/svg" xmlns:xlink="http://www.w3.org/1999/xlink">
<g transform="translate(.5 .5)">
<style>/* <![CDATA[ */
	svg.railroad-diagram {
		background-color:hsl(30,20%,95%);
	}
	svg.railroad-diagram path {
		stroke-width:3;
		stroke:black;
		fill:rgba(0,0,0,0);
	}
	svg.railroad-diagram text {
		font:bold 14px monospace;
		text-anchor:middle;
	}
	svg.railroad-diagram text.label{
		text-anchor:start;
	}
	svg.railroad-diagram text.comment{
		font:italic 12px monospace;
	}
	svg.railroad-diagram rect{
		stroke-width:3;
		stroke:black;
		fill:hsl(120,100%,90%);
	}
	svg.railroad-diagram rect.group-box {
		stroke: gray;
		stroke-dasharray: 10 5;
		fill: none;
	}

/* ]]> */
</style><g>
<path d="M20 21v20m0 -10h120.5"></path><text style="text-anchor:start" x="20" y="16">typeSpecifier</text></g><g>
<path d="M140.5 31h0.0"></path><path d="M277.0 31h0.0"></path><path d="M140.5 31h20"></path><g class="terminal ">
<path d="M160.5 31h4.25"></path><path d="M252.75 31h4.25"></path><rect height="22" rx="10" ry="10" width="88.0" x="164.75" y="20"></rect><text x="208.75" y="35">"number"</text></g><path d="M257.0 31h20"></path><path d="M140.5 31a10 10 0 0 1 10 10v10a10 10 0 0 0 10 10"></path><g class="terminal ">
<path d="M160.5 61h0.0"></path><path d="M257.0 61h0.0"></path><rect height="22" rx="10" ry="10" width="96.5" x="160.5" y="50"></rect><text x="208.75" y="65">"boolean"</text></g><path d="M257.0 61a10 10 0 0 0 10 -10v-10a10 10 0 0 1 10 -10"></path><path d="M140.5 31a10 10 0 0 1 10 10v40a10 10 0 0 0 10 10"></path><g class="terminal ">
<path d="M160.5 91h4.25"></path><path d="M252.75 91h4.25"></path><rect height="22" rx="10" ry="10" width="88.0" x="164.75" y="80"></rect><text x="208.75" y="95">"string"</text></g><path d="M257.0 91a10 10 0 0 0 10 -10v-40a10 10 0 0 1 10 -10"></path></g><path d="M 277.0 31 h 20 m -10 -10 v 20 m 10 -20 v 20"></path></g></svg>