<svg class="railroad-diagram" height="62" viewBox="0 0 689.0 62" width="689.0" xmlns="http://www.w3.org/2000/svg" xmlns:xlink="http://www.w3.org/1999/xlink">
<g transform="translate(.5 .5)">
<style>/* <![CDATA[ */
	svg.railroad-diagram {
		background-color:hsl(30,20%,95%);
	}
	svg.railroad-diagram path {
		stroke-width:3;
		stroke:black;
		fill:rgba(0,0,0,0);
	}
	svg.railroad-diagram text {
		font:bold 14px monospace;
		text-anchor:middle;
	}
	svg.railroad-diagram text.label{
		text-anchor:start;
	}
	svg.railroad-diagram text.comment{
		font:italic 12px monospace;
	}
	svg.railroad-diagram rect{
		stroke-width:3;
		stroke:black;
		fill:hsl(120,100%,90%);
	}
	svg.railroad-diagram rect.group-box {
		stroke: gray;
		stroke-dasharray: 10 5;
		fill: none;
	}

/* ]]> */
</style><g>
<path d="M20 21v20m0 -10h163.0"></path><text style="text-anchor:start" x="20" y="16">variableAssignment</text></g><path d="M183.0 31h10"></path><g class="non-terminal ">
<path d="M193.0 31h0.0"></path><path d="M323.5 31h0.0"></path><rect height="22" width="130.5" x="193.0" y="20"></rect><text x="258.25" y="35">TypeSpecifier</text></g><path d="M323.5 31h10"></path><path d="M333.5 31h10"></path><g class="non-terminal ">
<path d="M343.5 31h0.0"></path><path d="M448.5 31h0.0"></path><rect height="22" width="105.0" x="343.5" y="20"></rect><text x="396.0" y="35">identifier</text></g><path d="M448.5 31h10"></path><path d="M458.5 31h10"></path><g>
<path d="M468.5 31h0.0"></path><path d="M639.0 31h0.0"></path><g class="terminal ">
<path d="M468.5 31h0.0"></path><path d="M514.0 31h0.0"></path><rect height="22" rx="10" ry="10" width="45.5" x="468.5" y="20"></rect><text x="491.25" y="35">"="</text></g><path d="M514.0 31h10"></path><path d="M524.0 31h10"></path><g class="non-terminal ">
<path d="M534.0 31h0.0"></path><path d="M639.0 31h0.0"></path><rect height="22" width="105.0" x="534.0" y="20"></rect><text x="586.5" y="35">expression</text></g></g><path d="M639.0 31h10"></path><path d="M 649.0 31 h 20 m -10 -10 v 20 m 10 -20 v 20"></path></g></svg>